<?xml version="1.0" standalone="no"?>
<!DOCTYPE svg PUBLIC "-//W3C//DTD SVG 20010904//EN"
 "http://www.w3.org/TR/2001/REC-SVG-20010904/DTD/svg10.dtd">
<svg version="1.0" xmlns="http://www.w3.org/2000/svg"
 width="689.000000pt" height="527.000000pt" viewBox="0 0 689.000000 527.000000"
 preserveAspectRatio="xMidYMid meet">

<g transform="translate(0.000000,527.000000) scale(0.100000,-0.100000)"
stroke="none">
<path d="M4835 4975 c-122 -15 -266 -44 -365 -73 -137 -41 -321 -125 -355
-162 -14 -16 -13 -21 12 -59 24 -38 80 -81 104 -81 10 0 54 -19 156 -66 28
-13 62 -24 74 -24 12 0 65 20 118 44 190 87 373 135 601 157 137 13 307 8 384
-12 86 -22 175 -133 191 -240 15 -97 -32 -240 -97 -294 -70 -59 -258 -122
-393 -132 -95 -7 -112 4 -101 62 9 48 47 89 117 126 59 32 79 60 66 93 -5 13
-224 126 -244 126 -5 0 -25 9 -46 20 -21 11 -57 23 -81 26 -37 5 -53 1 -106
-27 -119 -63 -165 -151 -158 -303 5 -136 43 -176 256 -271 224 -100 311 -119
537 -119 140 0 172 4 255 26 172 46 305 118 359 193 38 53 75 157 85 236 19
153 -89 344 -258 458 -182 123 -511 260 -696 291 -110 17 -297 20 -415 5z"/>
<path d="M1803 4515 c-51 -22 -83 -84 -109 -213 -44 -218 -54 -315 -54 -527 0
-230 9 -289 65 -430 19 -49 35 -103 35 -118 0 -64 -144 -268 -293 -415 -116
-115 -127 -116 -145 -17 -7 39 -35 171 -62 295 -84 382 -82 369 -89 617 l-6
231 -30 43 c-17 24 -47 55 -67 69 -19 14 -71 52 -114 86 -110 84 -117 88 -153
70 -15 -8 -32 -26 -36 -38 -4 -13 -9 -140 -10 -283 -5 -453 -26 -510 -316
-856 -53 -62 -104 -130 -114 -149 l-18 -34 59 -53 c33 -29 88 -74 124 -100 36
-25 77 -57 91 -70 27 -25 95 -40 114 -26 6 4 55 59 109 121 114 130 135 139
148 62 16 -99 35 -366 27 -386 -4 -12 -29 -40 -56 -62 -197 -165 -407 -347
-442 -383 -23 -24 -53 -66 -66 -93 -22 -44 -25 -63 -25 -156 0 -195 66 -384
202 -574 92 -131 318 -324 447 -384 48 -22 62 -24 135 -19 111 8 184 36 235
92 23 25 46 57 51 71 20 53 3 412 -35 735 -18 151 -36 454 -29 474 3 8 47 49
97 92 160 135 368 335 450 430 45 54 86 93 97 93 20 0 115 -82 235 -204 180
-182 378 -328 448 -330 35 -1 44 5 83 48 27 32 48 47 58 43 16 -6 69 -86 120
-178 26 -47 28 -59 18 -72 -8 -9 -71 -45 -142 -80 -169 -85 -238 -133 -336
-231 -104 -106 -136 -168 -142 -280 -5 -111 16 -196 84 -326 120 -231 311
-442 590 -651 126 -94 216 -143 297 -160 68 -15 333 -5 406 15 30 8 66 27 80
41 25 24 26 31 25 123 -1 68 -10 142 -33 247 -75 357 -160 605 -307 897 -25
50 -44 99 -42 111 3 24 -5 19 412 196 131 56 270 120 308 142 122 72 238 185
351 344 25 35 52 31 116 -17 82 -61 239 -206 277 -257 54 -70 49 -83 -57 -138
-426 -225 -592 -380 -630 -588 -13 -70 -5 -215 17 -322 39 -191 108 -285 333
-455 133 -99 185 -124 294 -140 206 -29 384 39 569 218 117 112 156 197 165
359 7 118 -10 295 -39 405 -10 41 -45 128 -75 193 -49 102 -55 120 -42 132 8
8 64 42 124 76 61 34 149 86 197 116 48 30 96 53 105 51 21 -4 21 -4 154 -288
194 -415 178 -387 271 -463 156 -128 212 -167 241 -167 38 0 51 36 33 87 -18
49 -128 294 -205 457 -106 221 -261 598 -261 632 0 12 9 43 20 68 37 87 54
201 54 371 1 198 -13 252 -95 375 -69 102 -167 200 -309 307 -178 134 -237
149 -287 73 -21 -30 -23 -45 -23 -165 0 -207 25 -308 149 -609 33 -82 61 -157
61 -168 0 -24 -86 -116 -160 -172 -51 -39 -124 -86 -195 -126 -137 -77 -163
-90 -174 -90 -7 0 -73 54 -146 120 -73 66 -184 161 -247 210 -63 49 -120 96
-127 104 -11 12 -9 27 8 78 20 62 43 158 61 250 18 94 32 481 20 548 -13 70
-44 140 -85 189 -27 31 -203 172 -280 223 -118 78 -264 48 -357 -74 -34 -45
-170 -317 -196 -394 -49 -143 -54 -301 -13 -382 27 -52 112 -139 244 -247 53
-44 97 -86 97 -93 0 -38 -163 -212 -264 -281 -26 -18 -84 -50 -129 -71 -145
-66 -493 -210 -510 -210 -44 0 -181 252 -197 364 -14 87 -9 108 47 209 72 129
201 404 235 497 31 87 48 229 34 284 -8 31 -65 97 -122 140 -221 168 -218 166
-291 145 -57 -16 -159 -108 -215 -194 -71 -109 -98 -258 -98 -546 0 -174 2
-169 -102 -324 -52 -78 -80 -111 -95 -113 -34 -5 -118 72 -158 143 -37 67
-105 228 -105 249 0 7 24 65 54 127 125 260 176 467 179 713 1 150 -1 166 -25
233 -41 115 -107 204 -213 288 -225 180 -281 206 -362 170z m2515 -1252 c3
-45 -36 -248 -65 -332 -34 -101 -83 -90 -83 18 0 100 46 260 96 339 24 36 48
24 52 -25z m-3303 -1505 c9 -27 43 -545 38 -575 -10 -61 -116 -130 -168 -109
-22 8 -71 116 -95 210 -26 101 -28 252 -4 302 9 19 54 68 100 109 80 71 119
90 129 63z m4189 -173 c14 -61 13 -353 -1 -401 -20 -64 -65 -123 -155 -202
-111 -97 -204 -143 -301 -150 -56 -3 -75 -1 -85 11 -7 8 -18 65 -24 126 -21
201 13 305 131 410 122 107 357 253 401 248 19 -2 26 -10 34 -42z m-1961 -60
c71 -176 150 -457 186 -669 24 -138 26 -189 8 -204 -20 -17 -194 -35 -291 -31
-84 4 -86 5 -126 44 -67 65 -158 193 -208 293 -42 85 -46 100 -50 181 -4 80
-2 95 22 146 41 90 147 184 326 289 27 16 57 25 75 24 27 -3 33 -10 58 -73z"/>
</g>
</svg>
